<?xml version="1.0" encoding="UTF-8"?>
<svg width="300px" height="300px" viewBox="0 0 300 300" version="1.1" xmlns="http://www.w3.org/2000/svg" xmlns:xlink="http://www.w3.org/1999/xlink">
    <!-- Generator: Sketch 52.6 (67491) - http://www.bohemiancoding.com/sketch -->
    <title>BananaCoding Mark black text</title>
    <desc>Created with Sketch.</desc>
    <defs>
        <radialGradient cx="50.8965118%" cy="50%" fx="50.8965118%" fy="50%" r="44.9754407%" id="radialGradient-1">
            <stop stop-color="#FFE135" offset="0%"></stop>
            <stop stop-color="#FFD035" offset="100%"></stop>
        </radialGradient>
    </defs>
    <g id="BananaCoding-Mark-black-text" stroke="none" stroke-width="1" fill="none" fill-rule="evenodd">
        <g id="Group" transform="translate(38.000000, 38.000000)">
            <path d="M122.5,5.77350269 L199.927858,50.4764973 C206.115879,54.0491532 209.927858,60.6516936 209.927858,67.7970054 L209.927858,157.202995 C209.927858,164.348306 206.115879,170.950847 199.927858,174.523503 L122.5,219.226497 C116.311978,222.799153 108.688022,222.799153 102.5,219.226497 L25.0721421,174.523503 C18.8841205,170.950847 15.0721421,164.348306 15.0721421,157.202995 L15.0721421,67.7970054 C15.0721421,60.6516936 18.8841205,54.0491532 25.0721421,50.4764973 L102.5,5.77350269 C108.688022,2.20084679 116.311978,2.20084679 122.5,5.77350269 Z" id="Polygon" fill="url(#radialGradient-1)" fill-rule="nonzero"></path>
            <path d="M122.5,10.7735027 L195.597731,52.9764973 C201.785752,56.5491532 205.597731,63.1516936 205.597731,70.2970054 L205.597731,154.702995 C205.597731,161.848306 201.785752,168.450847 195.597731,172.023503 L122.5,214.226497 C116.311978,217.799153 108.688022,217.799153 102.5,214.226497 L29.4022691,172.023503 C23.2142476,168.450847 19.4022691,161.848306 19.4022691,154.702995 L19.4022691,70.2970054 C19.4022691,63.1516936 23.2142476,56.5491532 29.4022691,52.9764973 L102.5,10.7735027 C108.688022,7.20084679 116.311978,7.20084679 122.5,10.7735027 Z" id="Polygon-Copy" stroke="#000000" stroke-width="2" fill-rule="nonzero"></path>
            <path d="M72.6,82 L72.6,106.7 C69.1,108 67.6,112.6 69.9,115.9 C70.6,116.9 71.5,117.7 72.6,118.1 L72.6,142.7 L96.8,142.7 C104.4,142.3 110.7,136.6 110.7,129 C110.7,125.6 109.3,122.1 106.6,119.5 C102.4,115.6 96.6,115.6 91.2,115.6 L74.8,115.6 C70.7,115.6 70.7,109.2 74.8,109.2 L91.3,109.2 C100.1,109.2 106.1,103 106.1,95.5 C106.1,87.8 99.1,82 91.6,82 L72.6,82 Z M96.8,149 L64,149 C60,149 60,142.7 64,142.7 L66.3,142.7 L66.3,82 L64,82 C60,82 60,75.7 64,75.7 L91.8,75.7 C102.6,75.7 112.3,84.4 112.3,95.5 C112.3,106.4 102.7,111.1 102.7,111.1 C110.3,113.8 116.7,119.8 116.9,128.6 C117.3,139.1 107.8,149.2 96.8,149 Z M161.6,111.2 C160.4,105.6 152.8,102.8 146.1,102.8 C136.6,102.8 127.4,110.2 126.3,120 C124.5,118.9 122.1,118.8 120.1,120 C120.8,106.7 133.5,96.5 146,96.5 C152.2,96.5 159.1,98.8 161.7,103.4 L161.7,100.9 C161.7,98.9 162.9,98.1 164.4,98.1 C165.9,98.1 167.2,98.9 167.2,100.9 L167.2,111.7 C167.2,113.6 165.8,114.4 164.3,114.4 C162.7,114.4 162,113 161.6,111.2 Z M165.7,136.4 C167.2,137.5 167.4,139.5 166.3,140.9 C161.9,146.7 152.9,149.5 145.9,149.5 C133.1,149.7 120,138.9 120,125.1 C120,121 126.3,121 126.3,125.1 C126.3,135.6 136.3,143.2 146.1,143.2 C151.6,143.2 157.9,141.5 161.4,137 C162.4,135.6 164.4,135.4 165.7,136.4 Z" id="Bc" fill="#000000"></path>
            <path d="M105.067,171.086 C105.067,174.551 102.211,176 100.027,176 C97.36,176 95.092,173.732 95.05,171.065 C95.05,170.414 95.176,169.742 95.428,169.112 C95.848,168.083 96.478,167.075 97.003,166.067 L99.67,160.964 C99.88,160.586 100.258,160.544 100.552,160.691 C100.846,160.859 101.056,161.195 100.846,161.573 L98.347,166.403 C98.893,166.13 99.544,166.004 100.132,166.004 C102.883,166.046 105.067,168.356 105.067,171.086 Z M100.069,174.698 C101.602,174.698 103.744,173.69 103.744,171.086 C103.744,169.07 102.127,167.306 100.069,167.306 C99.124,167.306 98.179,167.663 97.444,168.398 C96.709,169.133 96.352,170.078 96.352,171.023 C96.352,172.934 98.074,174.698 100.069,174.698 Z M108.301,174.32 C108.763,174.32 109.141,174.719 109.141,175.181 C109.141,175.601 108.763,176 108.301,176 C107.86,176 107.482,175.601 107.482,175.181 C107.482,174.719 107.86,174.32 108.301,174.32 Z M115.987,161.237 L115.987,174.677 L117.205,174.677 C118.066,174.677 118.066,176 117.205,176 L113.446,176 C112.585,176 112.585,174.677 113.446,174.677 L114.664,174.677 L114.664,162.581 L113.068,163.82 C112.858,163.967 112.711,164.072 112.522,164.072 C112.165,164.072 111.871,163.799 111.871,163.421 C111.871,163.253 111.934,163.106 112.081,162.98 L114.664,160.943 C114.874,160.775 115.126,160.607 115.378,160.607 C115.714,160.607 115.987,160.817 115.987,161.237 Z M121.048,170.939 C121.048,170.939 121.657,170.897 121.699,171.527 C121.846,173.396 123.757,174.698 125.542,174.698 C127.432,174.698 129.427,173.249 129.343,171.17 C129.301,169.427 127.453,168.398 125.983,168.524 C125.563,168.524 125.332,168.188 125.332,167.852 C125.269,167.516 125.5,167.18 125.92,167.18 C127.222,167.075 128.65,165.878 128.587,164.618 C128.524,163.064 127.285,161.846 125.353,161.93 C124.303,161.972 123.127,162.476 122.539,163.022 C121.825,163.652 120.964,162.644 121.741,161.993 C122.56,161.237 124.198,160.649 125.227,160.607 C127.999,160.523 129.784,162.266 129.91,164.534 C129.973,166.172 128.818,167.306 127.747,167.726 C129.868,168.188 130.603,169.994 130.624,171.086 C130.75,173.816 128.356,176 125.458,176 C122.602,176 120.502,173.732 120.46,171.611 C120.418,171.212 120.67,170.939 121.048,170.939 Z" id="6.13" fill="#000000"></path>
            <path d="M107.46,30.395 L107.46,32.852 L109.917,32.852 C110.358,32.852 110.568,33.188 110.568,33.524 C110.568,33.86 110.358,34.175 109.917,34.175 L107.46,34.175 L107.46,36.632 C107.46,37.073 107.145,37.283 106.809,37.283 C106.473,37.283 106.137,37.073 106.137,36.632 L106.137,34.175 L103.68,34.175 C103.26,34.175 103.05,33.86 103.05,33.524 C103.05,33.188 103.26,32.852 103.68,32.852 L106.137,32.852 L106.137,30.395 C106.137,29.975 106.473,29.765 106.809,29.765 C107.145,29.765 107.46,29.975 107.46,30.395 Z M113.445,35.939 C113.445,35.939 114.054,35.897 114.096,36.527 C114.243,38.396 116.154,39.698 117.939,39.698 C119.829,39.698 121.824,38.249 121.74,36.17 C121.698,34.427 119.85,33.398 118.38,33.524 C117.96,33.524 117.729,33.188 117.729,32.852 C117.666,32.516 117.897,32.18 118.317,32.18 C119.619,32.075 121.047,30.878 120.984,29.618 C120.921,28.064 119.682,26.846 117.75,26.93 C116.7,26.972 115.524,27.476 114.936,28.022 C114.222,28.652 113.361,27.644 114.138,26.993 C114.957,26.237 116.595,25.649 117.624,25.607 C120.396,25.523 122.181,27.266 122.307,29.534 C122.37,31.172 121.215,32.306 120.144,32.726 C122.265,33.188 123,34.994 123.021,36.086 C123.147,38.816 120.753,41 117.855,41 C114.999,41 112.899,38.732 112.857,36.611 C112.815,36.212 113.067,35.939 113.445,35.939 Z" id="+3" fill="#000000"></path>
        </g>
    </g>
</svg>